<svg width="36" height="36" viewBox="0 0 36 36" fill="none" xmlns="http://www.w3.org/2000/svg">
<path d="M18 0C8.0595 0 0 8.1857 0 18.2818C0 26.8484 5.808 34.0164 13.638 36C13.554 35.7532 13.5 35.4668 13.5 35.1118V31.9871C12.7695 31.9871 11.5455 31.9871 11.238 31.9871C10.0065 31.9871 8.9115 31.4493 8.3805 30.4499C7.791 29.3393 7.689 27.6406 6.228 26.6016C5.7945 26.2558 6.1245 25.8612 6.624 25.9145C7.5465 26.1796 8.3115 26.8225 9.0315 27.7762C9.7485 28.7314 10.086 28.9478 11.4255 28.9478C12.075 28.9478 13.047 28.9097 13.962 28.7634C14.454 27.4944 15.3045 26.3259 16.344 25.7744C10.35 25.1482 7.4895 22.1195 7.4895 18.0076C7.4895 16.2373 8.232 14.5249 9.4935 13.0822C9.0795 11.6501 8.559 8.72958 9.6525 7.61744C12.3495 7.61744 13.98 9.39382 14.3715 9.87372C15.7155 9.40601 17.1915 9.14092 18.7425 9.14092C20.2965 9.14092 21.7785 9.40601 23.1255 9.87677C23.5125 9.39991 25.1445 7.61744 27.8475 7.61744C28.9455 8.7311 28.419 11.6638 28.0005 13.0928C29.2545 14.5325 29.9925 16.2404 29.9925 18.0076C29.9925 22.1165 27.1365 25.1436 21.1515 25.7728C22.7985 26.6458 24 29.0986 24 30.9466V35.1118C24 35.2703 23.9655 35.3845 23.9475 35.5201C30.9615 33.0231 36 26.2588 36 18.2818C36 8.1857 27.9405 0 18 0Z" fill="currentColor"/>
</svg>
